<?xml version="1.0" encoding="UTF-8"?>
<svg width="40px" height="40px" viewBox="0 0 125 125" version="1.1" xmlns="http://www.w3.org/2000/svg" xmlns:xlink="http://www.w3.org/1999/xlink">
    <!-- Generator: Sketch 48.2 (47327) - http://www.bohemiancoding.com/sketch -->
    <title>wwk</title>
    <desc>Created with Sketch.</desc>
    <defs></defs>
    <g id="Page-1" stroke="none" stroke-width="1" fill="none" fill-rule="evenodd">
        <g id="wwk">
            <circle id="Oval" fill="#CB2027" cx="62.5" cy="62.5" r="62.5"></circle>
            <path d="M47.299,101.102 C31.86,96.527 -12.674,76.976 37.795,12 C65.086,30.521 75.602,46.817 77.549,60.283 C64.495,64.958 55.508,74.047 56.628,90.491 C49.518,73.582 43.94,50.196 41.547,35.615 C40.347,52.648 42.86,82.944 47.299,101.102 Z" id="Shape" fill="#FFFFFF" fill-rule="nonzero"></path>
            <path d="M64.772,105.184 C61.014,94.738 53.207,60.778 111.54,62.65 C113.252,115.998 84.996,114.029 72.164,110.428 C77.476,100.088 84.314,90.756 92.967,82.877 C82.352,88.754 72.899,96.209 64.772,105.184 Z" id="Shape" fill="#FFFFFF" fill-rule="nonzero"></path>
        </g>
    </g>
</svg>